<svg xmlns="http://www.w3.org/2000/svg" viewBox="0 0 1600 580">
 <defs><linearGradient id="bg"><stop stop-color="#1c1009"/><stop offset="1" stop-color="#5d321b"/></linearGradient><radialGradient id="bean"><stop stop-color="#a6653b"/><stop offset="1" stop-color="#3a1d10"/></radialGradient></defs>
 <rect width="1600" height="580" fill="url(#bg)"/>
 <g opacity=".95" fill="url(#bean)" stroke="#c28a5b" stroke-width="3">
  <ellipse cx="930" cy="130" rx="75" ry="105" transform="rotate(23 930 130)"/><ellipse cx="1050" cy="210" rx="76" ry="108" transform="rotate(-18 1050 210)"/><ellipse cx="1180" cy="115" rx="70" ry="100" transform="rotate(12 1180 115)"/><ellipse cx="1320" cy="220" rx="78" ry="110" transform="rotate(28 1320 220)"/><ellipse cx="1450" cy="125" rx="70" ry="100" transform="rotate(-16 1450 125)"/>
  <ellipse cx="870" cy="420" rx="72" ry="102" transform="rotate(-20 870 420)"/><ellipse cx="1010" cy="430" rx="78" ry="110" transform="rotate(16 1010 430)"/><ellipse cx="1170" cy="400" rx="77" ry="108" transform="rotate(-6 1170 400)"/><ellipse cx="1350" cy="430" rx="74" ry="106" transform="rotate(20 1350 430)"/>
 </g>
 <path d="M0 0h760l240 580H0Z" fill="#0f0a06" opacity=".55"/>
</svg>
