<svg xmlns="http://www.w3.org/2000/svg" viewBox="0 0 1000 760">
 <defs><linearGradient id="bg" x1="0" y1="0" x2="1" y2="1"><stop stop-color="#27150c"/><stop offset="1" stop-color="#6a3f24"/></linearGradient><radialGradient id="bean"><stop stop-color="#9e5b31"/><stop offset="1" stop-color="#452416"/></radialGradient></defs>
 <rect width="1000" height="760" fill="url(#bg)"/>
 <g fill="#b67a55"><path d="M75 520c135-110 250-132 405-80l-38 195C306 590 188 611 60 690Z"/><path d="M925 520c-135-110-250-132-405-80l38 195c136-45 254-24 382 55Z"/></g>
 <g fill="#d29a77" opacity=".55"><ellipse cx="330" cy="528" rx="98" ry="33" transform="rotate(-18 330 528)"/><ellipse cx="672" cy="528" rx="98" ry="33" transform="rotate(18 672 528)"/></g>
 <g fill="url(#bean)" stroke="#c58a5c" stroke-width="3">
  <ellipse cx="450" cy="360" rx="42" ry="59" transform="rotate(18 450 360)"/><ellipse cx="520" cy="335" rx="41" ry="58" transform="rotate(-12 520 335)"/><ellipse cx="590" cy="385" rx="42" ry="59" transform="rotate(22 590 385)"/><ellipse cx="385" cy="420" rx="39" ry="55" transform="rotate(-23 385 420)"/><ellipse cx="505" cy="430" rx="42" ry="58" transform="rotate(7 505 430)"/><ellipse cx="620" cy="465" rx="40" ry="56" transform="rotate(-16 620 465)"/><ellipse cx="455" cy="500" rx="38" ry="52" transform="rotate(26 455 500)"/>
 </g>
 <g stroke="#e2b187" stroke-width="3" opacity=".55"><path d="M446 315c5 40 2 70 7 103"/><path d="M517 283c-5 42 2 74 2 105"/><path d="M586 335c4 43 6 75 8 105"/></g>
</svg>
