<svg xmlns="http://www.w3.org/2000/svg" viewBox="0 0 1600 900">
 <defs>
  <radialGradient id="bg" cx="72%" cy="42%" r="80%"><stop offset="0" stop-color="#355638"/><stop offset=".48" stop-color="#17291b"/><stop offset="1" stop-color="#0b130d"/></radialGradient>
  <linearGradient id="pod" x1="0" y1="0" x2="1" y2="1"><stop stop-color="#d18b3e"/><stop offset=".45" stop-color="#a95621"/><stop offset="1" stop-color="#6d2f13"/></linearGradient>
  <filter id="shadow"><feDropShadow dx="0" dy="18" stdDeviation="18" flood-color="#000" flood-opacity=".5"/></filter>
  <filter id="blur"><feGaussianBlur stdDeviation="18"/></filter>
 </defs>
 <rect width="1600" height="900" fill="url(#bg)"/>
 <g opacity=".18" fill="#9dbb77" filter="url(#blur)">
  <circle cx="1230" cy="120" r="160"/><circle cx="1450" cy="540" r="220"/><circle cx="850" cy="720" r="180"/>
 </g>
 <g opacity=".62" fill="#29482e">
  <ellipse cx="1180" cy="155" rx="270" ry="75" transform="rotate(-20 1180 155)"/>
  <ellipse cx="1370" cy="315" rx="240" ry="65" transform="rotate(30 1370 315)"/>
  <ellipse cx="1120" cy="720" rx="300" ry="80" transform="rotate(12 1120 720)"/>
 </g>
 <path d="M1255 0c-70 215-95 420-75 900" stroke="#4c3825" stroke-width="48" fill="none" opacity=".8"/>
 <g filter="url(#shadow)" transform="translate(1035 220)">
  <path d="M190 0C88 56 30 177 46 322c15 135 103 220 171 220 74 0 167-88 181-224C413 175 350 54 247 0c-18-10-39-10-57 0Z" fill="url(#pod)" stroke="#e0a861" stroke-width="7"/>
  <path d="M217 10v520M155 48c34 50 45 133 43 220M279 48c-34 50-45 133-43 220M96 111c68 55 174 55 242 0M69 222c91 57 216 57 307 0M74 340c86 50 207 50 293 0M103 445c70 36 165 36 235 0" fill="none" stroke="#f1b769" stroke-opacity=".58" stroke-width="8"/>
 </g>
 <g fill="#78965d" opacity=".85">
  <ellipse cx="988" cy="255" rx="190" ry="58" transform="rotate(-40 988 255)"/>
  <ellipse cx="1430" cy="205" rx="190" ry="58" transform="rotate(28 1430 205)"/>
  <ellipse cx="1010" cy="645" rx="230" ry="65" transform="rotate(22 1010 645)"/>
 </g>
 <rect width="1600" height="900" fill="url(#fade)" opacity="0"/>
</svg>
