<svg xmlns="http://www.w3.org/2000/svg" viewBox="0 0 360 96" role="img" aria-labelledby="title desc">
  <title id="title">AMAKAO</title><desc id="desc">Chocolate peruano con propósito</desc>
  <g fill="none" stroke="#C7A46A" stroke-width="2.2" stroke-linecap="round" stroke-linejoin="round">
    <path d="M38 12C23 23 17 42 20 59c3 17 15 25 23 25s20-8 23-25c3-17-3-36-18-47-3-2-7-2-10 0Z"/>
    <path d="M43 14v68M28 29c10 6 20 6 30 0M24 47c13 7 25 7 38 0M25 64c12 5 24 5 36 0"/>
    <path d="M48 17c9 7 14 18 15 31M38 17c-9 7-14 18-15 31" opacity=".8"/>
  </g>
  <text x="82" y="51" font-family="Georgia, 'Times New Roman', serif" font-size="38" letter-spacing="5" fill="#F5EBDD">AMAKAO</text>
  <text x="84" y="72" font-family="Arial, sans-serif" font-size="9.5" letter-spacing="2.2" fill="#C7A46A">CHOCOLATE PERUANO CON PROPÓSITO</text>
</svg>
